<svg width="30" height="30" viewBox="0 0 30 30" fill="none" xmlns="http://www.w3.org/2000/svg">
<path d="M18.369 14.5L26.3997 6.46937C26.7808 6.08891 26.9952 5.57263 26.9957 5.0341C26.9961 4.49558 26.7827 3.97892 26.4022 3.59779C26.0218 3.21665 25.5055 3.00227 24.9669 3.00179C24.4284 3.00132 23.9118 3.21479 23.5306 3.59525L15.5 11.6259L7.46937 3.59525C7.08824 3.21412 6.57131 3 6.03231 3C5.49331 3 4.97638 3.21412 4.59525 3.59525C4.21412 3.97638 4 4.49331 4 5.03231C4 5.57131 4.21412 6.08824 4.59525 6.46937L12.6259 14.5L4.59525 22.5306C4.21412 22.9118 4 23.4287 4 23.9677C4 24.5067 4.21412 25.0236 4.59525 25.4048C4.97638 25.7859 5.49331 26 6.03231 26C6.57131 26 7.08824 25.7859 7.46937 25.4048L15.5 17.3741L23.5306 25.4048C23.9118 25.7859 24.4287 26 24.9677 26C25.5067 26 26.0236 25.7859 26.4048 25.4048C26.7859 25.0236 27 24.5067 27 23.9677C27 23.4287 26.7859 22.9118 26.4048 22.5306L18.369 14.5Z" fill="black"/>
</svg>
